<?xml version="1.0" standalone="no"?>
<!DOCTYPE svg PUBLIC "-//W3C//DTD SVG 20010904//EN"
 "http://www.w3.org/TR/2001/REC-SVG-20010904/DTD/svg10.dtd">
<svg version="1.0" xmlns="http://www.w3.org/2000/svg"
 width="512.000000pt" height="512.000000pt" viewBox="0 0 512.000000 512.000000"
 preserveAspectRatio="xMidYMid meet">

<g transform="translate(0.000000,512.000000) scale(0.100000,-0.100000)"
fill="#FEB60C" stroke="none">
<path d="M2332 5109 c-470 -42 -931 -220 -1321 -512 -124 -92 -396 -364 -488
-488 -374 -501 -558 -1112 -515 -1712 6 -89 18 -202 27 -252 71 -415 235 -796
488 -1134 92 -124 364 -396 488 -488 501 -374 1112 -558 1711 -515 90 6 204
18 253 27 415 71 796 235 1134 488 124 92 396 364 488 488 374 501 558 1112
515 1711 -24 346 -99 634 -242 936 -133 279 -280 485 -509 712 -228 227 -400
350 -676 485 -182 89 -308 136 -480 180 -296 76 -583 100 -873 74z m493 -1024
c448 -68 708 -310 766 -714 18 -129 7 -324 -26 -436 -80 -274 -281 -466 -573
-545 -42 -12 -83 -23 -91 -26 -7 -2 14 -18 48 -35 74 -37 167 -126 225 -217
41 -63 596 -1085 596 -1096 0 -3 -87 -6 -193 -6 l-192 0 -265 492 c-146 271
-286 524 -311 563 -79 121 -175 192 -314 231 -50 15 -121 18 -427 22 l-368 4
0 -656 0 -656 -175 0 -175 0 0 1545 0 1545 688 0 c560 0 705 -3 787 -15z"/>
<path d="M1700 3205 l0 -605 463 0 c487 0 589 7 707 48 243 85 364 250 377
516 15 308 -108 505 -374 597 -122 42 -221 49 -710 49 l-463 0 0 -605z"/>
</g>
</svg>
